<svg width="2497" height="690" viewBox="0 0 2497 690" fill="none" xmlns="http://www.w3.org/2000/svg">
<path d="M204.208 161.41C213.675 125.535 235.327 115.47 269.165 131.214C303.002 146.958 332.328 154.679 357.142 154.377C381.956 154.075 408.267 156.259 436.076 160.93C463.885 165.601 494.513 174.264 527.96 186.918C561.408 199.573 583.356 222.221 593.805 254.861C604.254 287.502 606.241 320.156 599.765 352.823C593.289 385.491 574.84 410.536 544.417 427.961C513.995 445.385 495.361 469.167 488.515 499.309C481.668 529.45 465.706 552.999 440.627 569.954C415.548 586.909 387.619 594.937 356.839 594.037C326.059 593.137 294.433 592.267 261.963 591.426C229.492 590.586 211.159 570.492 206.964 531.144C202.769 491.797 194.702 462.741 182.763 443.975C170.824 425.209 144.854 404.536 104.854 381.954C64.8536 359.373 56.6327 333.989 80.1909 305.803C103.749 277.616 127.942 255.473 152.768 239.373C177.595 223.273 194.741 197.285 204.208 161.41Z" fill="url(#paint0_linear_14_313)"/>
<path d="M2224.22 603.9C2200.3 632.263 2176.42 632.085 2152.59 603.365C2128.75 574.645 2105.56 555.107 2083.01 544.752C2060.46 534.397 2037.62 521.154 2014.49 505.022C1991.36 488.891 1967.4 467.944 1942.59 442.183C1917.79 416.422 1907.65 386.556 1912.19 352.585C1916.73 318.615 1928.92 288.257 1948.77 261.511C1968.61 234.766 1996.01 220.036 2030.96 217.321C2065.92 214.606 2092.94 201.097 2112.04 176.793C2131.13 152.488 2155.64 138.046 2185.57 133.466C2215.49 128.886 2244.17 133.595 2271.6 147.592C2299.02 161.588 2327.23 175.92 2356.21 190.588C2385.19 205.255 2393.15 231.265 2380.09 268.617C2367.03 305.969 2361.87 335.681 2364.62 357.752C2367.37 379.823 2381.99 409.627 2408.46 447.165C2434.93 484.703 2431.49 511.162 2398.13 526.541C2364.77 541.921 2333.42 551.568 2304.09 555.483C2274.76 559.398 2248.14 575.537 2224.22 603.9Z" fill="url(#paint1_linear_14_313)"/>
<defs>
<linearGradient id="paint0_linear_14_313" x1="345.919" y1="555.073" x2="380.665" y2="101.39" gradientUnits="userSpaceOnUse">
<stop stop-color="#2B5378"/>
<stop offset="1" stop-color="#5FB0E7"/>
<stop offset="1.0001" stop-color="#8DB38B"/>
</linearGradient>
<linearGradient id="paint1_linear_14_313" x1="2264.78" y1="187.478" x2="2039.06" y2="582.558" gradientUnits="userSpaceOnUse">
<stop stop-color="#2B5378"/>
<stop offset="1" stop-color="#5FB0E7"/>
<stop offset="1.0001" stop-color="#8DB38B"/>
</linearGradient>
</defs>
</svg>
