<svg width="23" height="19" viewBox="0 0 23 19" fill="none" xmlns="http://www.w3.org/2000/svg">
<mask id="mask0_2001_143" style="mask-type:luminance" maskUnits="userSpaceOnUse" x="0" y="0" width="23" height="19">
<path d="M0.5 0H22.5V18.9444H0.5V0Z" fill="white"/>
</mask>
<g mask="url(#mask0_2001_143)">
<path d="M21.917 14.9364L18.4202 18.6858C18.3445 18.7673 18.2529 18.8323 18.1511 18.8768C18.0492 18.9212 17.9393 18.9443 17.8281 18.9444H1.25175C1.17269 18.9443 1.09535 18.9212 1.02922 18.8779C0.963084 18.8346 0.911018 18.7729 0.879394 18.7004C0.847771 18.628 0.837964 18.5479 0.851173 18.4699C0.864383 18.392 0.900036 18.3196 0.953767 18.2616L4.44665 14.5121C4.52228 14.4307 4.61388 14.3657 4.71574 14.3212C4.81759 14.2768 4.92752 14.2538 5.03866 14.2536H21.6151C21.6948 14.252 21.7733 14.274 21.8407 14.3168C21.908 14.3597 21.9611 14.4215 21.9934 14.4945C22.0257 14.5675 22.0356 14.6484 22.022 14.727C22.0084 14.8056 21.9719 14.8785 21.917 14.9364ZM18.4202 7.38429C18.3442 7.30322 18.2526 7.23849 18.1508 7.19404C18.049 7.14959 17.9392 7.12637 17.8281 7.12578H1.25175C1.17269 7.12583 1.09535 7.14892 1.02922 7.19225C0.963084 7.23557 0.911018 7.29724 0.879394 7.3697C0.847771 7.44216 0.837964 7.52227 0.851173 7.60022C0.864383 7.67817 0.900036 7.75057 0.953767 7.80857L4.44665 11.56C4.52257 11.641 4.61423 11.7058 4.71602 11.7502C4.81781 11.7947 4.92759 11.8179 5.03866 11.8185H21.6151C21.6939 11.8181 21.771 11.7947 21.8368 11.7512C21.9027 11.7077 21.9545 11.646 21.9858 11.5737C22.0172 11.5013 22.0269 11.4213 22.0136 11.3436C22.0003 11.2658 21.9647 11.1936 21.9111 11.1357L18.4202 7.38429ZM1.25175 4.69063H17.8281C17.9393 4.69054 18.0492 4.66753 18.1511 4.62305C18.2529 4.57858 18.3445 4.51358 18.4202 4.43212L21.917 0.682694C21.958 0.63936 21.9889 0.587507 22.0075 0.53084C22.0261 0.474172 22.032 0.414091 22.0247 0.35489C22.0174 0.29569 21.9971 0.238832 21.9653 0.188382C21.9335 0.137932 21.8909 0.0951357 21.8406 0.063052C21.7733 0.0202206 21.6948 -0.00174984 21.6151 -9.61702e-05H5.03866C4.92752 2.08197e-05 4.81759 0.0230355 4.71574 0.0675126C4.61388 0.11199 4.52228 0.176975 4.44665 0.258417L0.953767 4.00784C0.900036 4.06584 0.864383 4.13824 0.851173 4.21619C0.837964 4.29414 0.847771 4.37425 0.879394 4.44671C0.911018 4.51918 0.963084 4.58084 1.02922 4.62417C1.09535 4.66749 1.17269 4.69059 1.25175 4.69063Z" fill="url(#paint0_linear_2001_143)"/>
</g>
<defs>
<linearGradient id="paint0_linear_2001_143" x1="2.63311" y1="19.3963" x2="20.0147" y2="-0.1994" gradientUnits="userSpaceOnUse">
<stop offset="0.08" stop-color="#9945FF"/>
<stop offset="0.3" stop-color="#8752F3"/>
<stop offset="0.5" stop-color="#5497D5"/>
<stop offset="0.6" stop-color="#43B4CA"/>
<stop offset="0.72" stop-color="#28E0B9"/>
<stop offset="0.97" stop-color="#19FB9B"/>
</linearGradient>
</defs>
</svg>
