<svg width="25" height="21" viewBox="0 0 25 21" fill="none" xmlns="http://www.w3.org/2000/svg">
<mask id="mask0_42_654" style="mask-type:luminance" maskUnits="userSpaceOnUse" x="0" y="0" width="25" height="21">
<path d="M0.5 0H24.5V20.6667H0.5V0Z" fill="white"/>
</mask>
<g mask="url(#mask0_42_654)">
<path d="M23.8641 16.2942L20.0493 20.3845C19.9668 20.4734 19.8669 20.5443 19.7558 20.5928C19.6447 20.6413 19.5248 20.6664 19.4035 20.6665H1.32018C1.23393 20.6665 1.14957 20.6413 1.07742 20.594C1.00527 20.5468 0.948472 20.4795 0.913974 20.4004C0.879476 20.3214 0.868777 20.234 0.883187 20.149C0.897597 20.0639 0.936491 19.9849 0.995107 19.9217L4.80552 15.8314C4.88803 15.7425 4.98796 15.6717 5.09907 15.6231C5.21019 15.5746 5.33011 15.5495 5.45136 15.5494H23.5347C23.6217 15.5476 23.7074 15.5716 23.7808 15.6183C23.8542 15.6651 23.9122 15.7325 23.9474 15.8121C23.9826 15.8917 23.9935 15.98 23.9787 16.0658C23.9638 16.1516 23.924 16.2311 23.8641 16.2942ZM20.0493 8.05556C19.9665 7.96712 19.8665 7.89649 19.7555 7.84801C19.6444 7.79952 19.5247 7.77418 19.4035 7.77354H1.32018C1.23393 7.77359 1.14957 7.79879 1.07742 7.84605C1.00527 7.89331 0.948472 7.96058 0.913974 8.03963C0.879476 8.11868 0.868777 8.20607 0.883187 8.29111C0.897597 8.37615 0.936491 8.45514 0.995107 8.5184L4.80552 12.6108C4.88835 12.6993 4.98834 12.7699 5.09938 12.8184C5.21042 12.8669 5.33019 12.8922 5.45136 12.8929H23.5347C23.6207 12.8924 23.7048 12.8669 23.7766 12.8195C23.8485 12.772 23.9049 12.7047 23.9392 12.6258C23.9734 12.5468 23.9839 12.4596 23.9694 12.3748C23.955 12.2899 23.9161 12.2111 23.8576 12.148L20.0493 8.05556ZM1.32018 5.11702H19.4035C19.5248 5.11691 19.6447 5.09182 19.7558 5.0433C19.8669 4.99477 19.9668 4.92387 20.0493 4.835L23.8641 0.744722C23.9088 0.697449 23.9425 0.640882 23.9628 0.579063C23.9831 0.517244 23.9895 0.451701 23.9816 0.387118C23.9736 0.322536 23.9515 0.26051 23.9168 0.205473C23.882 0.150437 23.8356 0.10375 23.7807 0.0687494C23.7073 0.0220243 23.6217 -0.00194353 23.5347 -0.000139527H5.45136C5.33011 -1.19017e-05 5.21019 0.025095 5.09907 0.0736155C4.98796 0.122136 4.88803 0.193029 4.80552 0.281874L0.995107 4.37215C0.936491 4.43542 0.897597 4.51441 0.883187 4.59945C0.868777 4.68448 0.879476 4.77188 0.913974 4.85093C0.948472 4.92997 1.00527 4.99725 1.07742 5.04451C1.14957 5.09177 1.23393 5.11697 1.32018 5.11702Z" fill="black"/>
</g>
</svg>
