<svg width="31" height="27" viewBox="0 0 31 27" fill="none" xmlns="http://www.w3.org/2000/svg">
<mask id="mask0_2001_417" style="mask-type:luminance" maskUnits="userSpaceOnUse" x="0" y="0" width="31" height="27">
<path d="M0.5 0.260742H30.6936V26.2607H0.5V0.260742Z" fill="white"/>
</mask>
<g mask="url(#mask0_2001_417)">
<path d="M29.8938 20.7601L25.0946 25.906C24.9908 26.0177 24.8651 26.1069 24.7253 26.168C24.5855 26.229 24.4346 26.2606 24.2821 26.2607H1.53209C1.42358 26.2607 1.31745 26.229 1.22669 26.1695C1.13592 26.1101 1.06446 26.0254 1.02106 25.926C0.977661 25.8265 0.964201 25.7166 0.98233 25.6096C1.00046 25.5026 1.04939 25.4033 1.12313 25.3237L5.91688 20.1778C6.02068 20.0661 6.1464 19.9769 6.28619 19.9158C6.42598 19.8548 6.57684 19.8232 6.72938 19.823H29.4794C29.5889 19.8208 29.6966 19.851 29.789 19.9098C29.8814 19.9686 29.9543 20.0534 29.9986 20.1536C30.0429 20.2538 30.0566 20.3648 30.0379 20.4727C30.0193 20.5806 29.9691 20.6806 29.8938 20.7601ZM25.0946 10.3953C24.9904 10.2841 24.8646 10.1952 24.7249 10.1342C24.5852 10.0732 24.4345 10.0413 24.2821 10.0405H1.53209C1.42358 10.0406 1.31745 10.0723 1.22669 10.1318C1.13592 10.1912 1.06446 10.2758 1.02106 10.3753C0.977661 10.4747 0.964201 10.5847 0.98233 10.6917C1.00046 10.7986 1.04939 10.898 1.12313 10.9776L5.91688 16.1262C6.02108 16.2374 6.14688 16.3263 6.28658 16.3873C6.42627 16.4483 6.57695 16.4801 6.72938 16.4809H29.4794C29.5877 16.4804 29.6934 16.4483 29.7838 16.3886C29.8741 16.329 29.9452 16.2443 29.9882 16.145C30.0313 16.0456 30.0445 15.9359 30.0263 15.8292C30.0081 15.7224 29.9592 15.6233 29.8856 15.5439L25.0946 10.3953ZM1.53209 6.69845H24.2821C24.4346 6.69832 24.5855 6.66675 24.7253 6.60571C24.8651 6.54466 24.9908 6.45546 25.0946 6.34366L29.8938 1.19782C29.95 1.13835 29.9924 1.06719 30.018 0.989413C30.0435 0.911641 30.0516 0.829184 30.0416 0.747935C30.0316 0.666686 30.0037 0.588653 29.9601 0.519413C29.9164 0.450174 29.858 0.391439 29.7889 0.347406C29.6966 0.288623 29.5889 0.25847 29.4794 0.260739H6.72938C6.57684 0.2609 6.42598 0.292486 6.28619 0.353528C6.1464 0.41457 6.02068 0.503758 5.91688 0.615531L1.12313 5.76136C1.04939 5.84096 1.00046 5.94034 0.98233 6.04732C0.964201 6.1543 0.977661 6.26424 1.02106 6.36369C1.06446 6.46314 1.13592 6.54777 1.22669 6.60723C1.31745 6.66669 1.42358 6.69839 1.53209 6.69845Z" fill="url(#paint0_linear_2001_417)"/>
</g>
<defs>
<linearGradient id="paint0_linear_2001_417" x1="3.42792" y1="26.881" x2="27.2829" y2="-0.0127978" gradientUnits="userSpaceOnUse">
<stop offset="0.08" stop-color="#9945FF"/>
<stop offset="0.3" stop-color="#8752F3"/>
<stop offset="0.5" stop-color="#5497D5"/>
<stop offset="0.6" stop-color="#43B4CA"/>
<stop offset="0.72" stop-color="#28E0B9"/>
<stop offset="0.97" stop-color="#19FB9B"/>
</linearGradient>
</defs>
</svg>
