<svg width="29" height="37" viewBox="0 0 29 37" fill="none" xmlns="http://www.w3.org/2000/svg">
<g clip-path="url(#clip0_2046_1335)">
<circle cx="14.5" cy="23" r="14" fill="#FF6B6B"/>
<path d="M14.1087 30.4114C13.9615 30.4114 13.837 30.3629 13.7351 30.266L8.43614 25.4016C8.37953 25.3585 8.30169 25.2885 8.20262 25.1915C8.10354 25.0946 7.94644 24.9181 7.73132 24.6623C7.51619 24.4064 7.32371 24.1438 7.15387 23.8744C6.98404 23.6051 6.8326 23.2792 6.69956 22.8967C6.56652 22.5142 6.5 22.1425 6.5 21.7816C6.5 20.5965 6.85949 19.6699 7.57846 19.002C8.29744 18.334 9.29099 18 10.5591 18C10.9101 18 11.2682 18.0579 11.6333 18.1737C11.9985 18.2895 12.3381 18.4458 12.6523 18.6424C12.9665 18.839 13.2369 19.0235 13.4633 19.1959C13.6898 19.3683 13.9049 19.5514 14.1087 19.7454C14.3125 19.5514 14.5276 19.3683 14.7541 19.1959C14.9805 19.0235 15.2508 18.839 15.565 18.6424C15.8792 18.4458 16.2189 18.2895 16.5841 18.1737C16.9492 18.0579 17.3073 18 17.6583 18C18.9264 18 19.92 18.334 20.6389 19.002C21.3579 19.6699 21.7174 20.5965 21.7174 21.7816C21.7174 22.9721 21.0692 24.1842 19.7728 25.4178L14.4823 30.266C14.3804 30.3629 14.2559 30.4114 14.1087 30.4114Z" fill="#FAF2EF"/>
</g>
<defs>
<clipPath id="clip0_2046_1335">
<rect width="28" height="36.9231" fill="white" transform="translate(0.5 0.0769043)"/>
</clipPath>
</defs>
</svg>
