<svg width="31" height="28" viewBox="0 0 31 28" fill="none" xmlns="http://www.w3.org/2000/svg">
<path d="M1.34619 4C1.34619 2.067 2.91319 0.5 4.84619 0.5H26.8462C28.7792 0.5 30.3462 2.067 30.3462 4V24C30.3462 25.933 28.7792 27.5 26.8462 27.5H4.84619C2.91319 27.5 1.34619 25.933 1.34619 24V4Z" fill="#5FB0E7"/>
<path d="M1.34619 4C1.34619 2.067 2.91319 0.5 4.84619 0.5H26.8462C28.7792 0.5 30.3462 2.067 30.3462 4V24C30.3462 25.933 28.7792 27.5 26.8462 27.5H4.84619C2.91319 27.5 1.34619 25.933 1.34619 24V4Z" stroke="#5FB0E7"/>
<path d="M22.9402 7.38722C23.0527 7.65861 23.0064 7.89028 22.8012 8.08224L17.9063 12.9771V20.3443C17.9063 20.6223 17.7773 20.8176 17.5191 20.9301C17.4331 20.9632 17.3503 20.9797 17.2709 20.9797C17.0922 20.9797 16.9432 20.9168 16.8241 20.7911L14.2823 18.2493C14.1566 18.1236 14.0937 17.9746 14.0937 17.8025V12.9771L9.19878 8.08224C8.99359 7.89028 8.94725 7.65861 9.05978 7.38722C9.17231 7.12907 9.36757 7 9.64558 7H22.3544C22.6324 7 22.8277 7.12907 22.9402 7.38722Z" fill="white"/>
</svg>
