<svg width="29" height="29" viewBox="0 0 29 29" fill="none" xmlns="http://www.w3.org/2000/svg">
<circle cx="14.5" cy="14.2607" r="14" fill="#FF6B6B"/>
<path d="M14.5 21.5941C14.3646 21.5941 14.25 21.5472 14.1562 21.4535L9.28125 16.7504C9.22917 16.7087 9.15755 16.641 9.06641 16.5472C8.97526 16.4535 8.83073 16.2829 8.63281 16.0355C8.4349 15.7881 8.25781 15.5342 8.10156 15.2738C7.94531 15.0134 7.80599 14.6983 7.68359 14.3285C7.5612 13.9587 7.5 13.5993 7.5 13.2504C7.5 12.1045 7.83073 11.2087 8.49219 10.5629C9.15365 9.91703 10.0677 9.59412 11.2344 9.59412C11.5573 9.59412 11.8867 9.65011 12.2227 9.76208C12.5586 9.87406 12.8711 10.0251 13.1602 10.2152C13.4492 10.4053 13.6979 10.5837 13.9062 10.7504C14.1146 10.917 14.3125 11.0941 14.5 11.2816C14.6875 11.0941 14.8854 10.917 15.0938 10.7504C15.3021 10.5837 15.5508 10.4053 15.8398 10.2152C16.1289 10.0251 16.4414 9.87406 16.7773 9.76208C17.1133 9.65011 17.4427 9.59412 17.7656 9.59412C18.9323 9.59412 19.8464 9.91703 20.5078 10.5629C21.1693 11.2087 21.5 12.1045 21.5 13.2504C21.5 14.4014 20.9036 15.5733 19.7109 16.766L14.8438 21.4535C14.75 21.5472 14.6354 21.5941 14.5 21.5941Z" fill="white"/>
</svg>
