<svg width="29" height="28" viewBox="0 0 29 28" fill="none" xmlns="http://www.w3.org/2000/svg">
<circle cx="14.5" cy="14" r="14" fill="#FF6B6B"/>
<path d="M14.1087 21.4114C13.9615 21.4114 13.837 21.3629 13.7351 21.266L8.43614 16.4016C8.37953 16.3585 8.30169 16.2885 8.20262 16.1915C8.10354 16.0946 7.94644 15.9181 7.73132 15.6623C7.51619 15.4064 7.32371 15.1438 7.15387 14.8744C6.98404 14.6051 6.8326 14.2792 6.69956 13.8967C6.56652 13.5142 6.5 13.1425 6.5 12.7816C6.5 11.5965 6.85949 10.6699 7.57846 10.002C8.29744 9.33399 9.29099 9 10.5591 9C10.9101 9 11.2682 9.05791 11.6333 9.17373C11.9985 9.28955 12.3381 9.44577 12.6523 9.64239C12.9665 9.83901 13.2369 10.0235 13.4633 10.1959C13.6898 10.3683 13.9049 10.5514 14.1087 10.7454C14.3125 10.5514 14.5276 10.3683 14.7541 10.1959C14.9805 10.0235 15.2508 9.83901 15.565 9.64239C15.8792 9.44577 16.2189 9.28955 16.5841 9.17373C16.9492 9.05791 17.3073 9 17.6583 9C18.9264 9 19.92 9.33399 20.6389 10.002C21.3579 10.6699 21.7174 11.5965 21.7174 12.7816C21.7174 13.9721 21.0692 15.1842 19.7728 16.4178L14.4823 21.266C14.3804 21.3629 14.2559 21.4114 14.1087 21.4114Z" fill="#FAF2EF"/>
</svg>
