<svg width="50" height="50" viewBox="0 0 50 50" fill="none" xmlns="http://www.w3.org/2000/svg">
<circle cx="25" cy="24.7607" r="24.5" fill="white"/>
<path d="M38.4435 21.8673L35.4196 31.3912C35.1935 32.0694 34.6 32.5216 33.8935 32.5216H22.2217C21.5435 32.5216 20.8935 32.0977 20.6674 31.476L16.2022 19.5216H13.6304C13.0087 19.5216 12.5 19.0129 12.5 18.3912C12.5 17.7694 13.0087 17.2607 13.6304 17.2607H16.9935C17.4739 17.2607 17.8978 17.5716 18.0674 18.0238L22.6739 30.2607H33.413L35.8152 22.6303H22.5043C21.8826 22.6303 21.3739 22.1216 21.3739 21.4999C21.3739 20.8781 21.8826 20.3694 22.5043 20.3694H37.3696C37.737 20.3694 38.0761 20.5673 38.2739 20.8499C38.5 21.1325 38.5565 21.5281 38.4435 21.8673ZM22.787 34.0194C22.3065 34.0194 21.8261 34.2173 21.487 34.5564C21.1478 34.8955 20.95 35.376 20.95 35.8564C20.95 36.3368 21.1478 36.8173 21.487 37.1564C21.8261 37.4955 22.3065 37.6934 22.787 37.6934C23.2674 37.6934 23.7478 37.4955 24.087 37.1564C24.4261 36.8173 24.6239 36.3368 24.6239 35.8564C24.6239 35.376 24.4261 34.8955 24.087 34.5564C23.7478 34.2173 23.2674 34.0194 22.787 34.0194ZM32.9326 34.0194C32.4522 34.0194 31.9717 34.2173 31.6326 34.5564C31.2935 34.8955 31.0957 35.376 31.0957 35.8564C31.0957 36.3368 31.2935 36.8173 31.6326 37.1564C31.9717 37.4955 32.4522 37.6934 32.9326 37.6934C33.413 37.6934 33.8935 37.4955 34.2326 37.1564C34.5717 36.8173 34.7696 36.3368 34.7696 35.8564C34.7696 35.376 34.5717 34.8955 34.2326 34.5564C33.8935 34.2173 33.413 34.0194 32.9326 34.0194Z" fill="black"/>
</svg>
