<svg width="43" height="42" viewBox="0 0 43 42" fill="none" xmlns="http://www.w3.org/2000/svg">
<circle cx="21.5" cy="21" r="21" fill="#5FB0E7"/>
<path d="M30.2043 28.2848L26.8054 24.8958C27.902 23.4988 28.4971 21.7735 28.4948 19.9974C28.4948 18.4157 28.0258 16.8695 27.147 15.5543C26.2683 14.2391 25.0192 13.2141 23.5579 12.6088C22.0966 12.0035 20.4886 11.8451 18.9372 12.1537C17.3859 12.4623 15.9609 13.2239 14.8424 14.3424C13.7239 15.4609 12.9623 16.8859 12.6537 18.4372C12.3451 19.9886 12.5035 21.5966 13.1088 23.0579C13.7141 24.5192 14.7391 25.7683 16.0543 26.647C17.3695 27.5258 18.9157 27.9948 20.4974 27.9948C22.2735 27.9971 23.9988 27.402 25.3958 26.3054L28.7848 29.7043C28.8777 29.798 28.9883 29.8724 29.1101 29.9231C29.2319 29.9739 29.3626 30 29.4945 30C29.6265 30 29.7572 29.9739 29.879 29.9231C30.0008 29.8724 30.1114 29.798 30.2043 29.7043C30.298 29.6114 30.3724 29.5008 30.4231 29.379C30.4739 29.2572 30.5 29.1265 30.5 28.9945C30.5 28.8626 30.4739 28.7319 30.4231 28.6101C30.3724 28.4883 30.298 28.3777 30.2043 28.2848ZM14.4994 19.9974C14.4994 18.8111 14.8511 17.6515 15.5102 16.6651C16.1693 15.6787 17.1061 14.9099 18.2021 14.4559C19.2981 14.002 20.5041 13.8832 21.6676 14.1146C22.8311 14.346 23.8999 14.9173 24.7387 15.7562C25.5775 16.595 26.1488 17.6638 26.3802 18.8273C26.6117 19.9908 26.4929 21.1968 26.0389 22.2928C25.5849 23.3888 24.8162 24.3256 23.8298 24.9846C22.8434 25.6437 21.6837 25.9955 20.4974 25.9955C18.9066 25.9955 17.381 25.3636 16.2562 24.2387C15.1313 23.1138 14.4994 21.5882 14.4994 19.9974Z" fill="white"/>
</svg>
