<svg width="23" height="22" viewBox="0 0 23 22" fill="none" xmlns="http://www.w3.org/2000/svg">
<circle cx="11.5" cy="11" r="11" fill="#FF6B6B"/>
<path d="M11.5 16.7622C11.3936 16.7622 11.3036 16.7254 11.2299 16.6517L7.39955 12.9564C7.35863 12.9236 7.30236 12.8704 7.23075 12.7968C7.15913 12.7231 7.04557 12.5891 6.89007 12.3947C6.73456 12.2003 6.59542 12.0008 6.47266 11.7962C6.34989 11.5916 6.24042 11.344 6.14425 11.0535C6.04808 10.7629 6 10.4806 6 10.2064C6 9.30609 6.25986 8.60222 6.77958 8.09478C7.29929 7.58734 8.01749 7.33362 8.93415 7.33362C9.18787 7.33362 9.44671 7.37761 9.71066 7.46559C9.97461 7.55358 10.2201 7.67225 10.4473 7.82162C10.6744 7.97099 10.8698 8.11115 11.0335 8.2421C11.1972 8.37305 11.3527 8.51219 11.5 8.65951C11.6473 8.51219 11.8028 8.37305 11.9665 8.2421C12.1302 8.11115 12.3256 7.97099 12.5527 7.82162C12.7799 7.67225 13.0254 7.55358 13.2893 7.46559C13.5533 7.37761 13.8121 7.33362 14.0658 7.33362C14.9825 7.33362 15.7007 7.58734 16.2204 8.09478C16.7401 8.60222 17 9.30609 17 10.2064C17 11.1108 16.5314 12.0315 15.5943 12.9687L11.7701 16.6517C11.6964 16.7254 11.6064 16.7622 11.5 16.7622Z" fill="white"/>
</svg>
