<svg width="49" height="50" viewBox="0 0 49 50" fill="none" xmlns="http://www.w3.org/2000/svg">
<circle cx="24.5" cy="25" r="24.5" fill="#FAF2EF"/>
<path d="M37.9435 22.1065L34.9196 31.6304C34.6935 32.3087 34.1 32.7609 33.3935 32.7609H21.7217C21.0435 32.7609 20.3935 32.337 20.1674 31.7152L15.7022 19.7609H13.1304C12.5087 19.7609 12 19.2522 12 18.6304C12 18.0087 12.5087 17.5 13.1304 17.5H16.4935C16.9739 17.5 17.3978 17.8109 17.5674 18.263L22.1739 30.5H32.913L35.3152 22.8696H22.0043C21.3826 22.8696 20.8739 22.3609 20.8739 21.7391C20.8739 21.1174 21.3826 20.6087 22.0043 20.6087H36.8696C37.237 20.6087 37.5761 20.8065 37.7739 21.0891C38 21.3717 38.0565 21.7674 37.9435 22.1065ZM22.287 34.2587C21.8065 34.2587 21.3261 34.4565 20.987 34.7957C20.6478 35.1348 20.45 35.6152 20.45 36.0957C20.45 36.5761 20.6478 37.0565 20.987 37.3957C21.3261 37.7348 21.8065 37.9326 22.287 37.9326C22.7674 37.9326 23.2478 37.7348 23.587 37.3957C23.9261 37.0565 24.1239 36.5761 24.1239 36.0957C24.1239 35.6152 23.9261 35.1348 23.587 34.7957C23.2478 34.4565 22.7674 34.2587 22.287 34.2587ZM32.4326 34.2587C31.9522 34.2587 31.4717 34.4565 31.1326 34.7957C30.7935 35.1348 30.5957 35.6152 30.5957 36.0957C30.5957 36.5761 30.7935 37.0565 31.1326 37.3957C31.4717 37.7348 31.9522 37.9326 32.4326 37.9326C32.913 37.9326 33.3935 37.7348 33.7326 37.3957C34.0717 37.0565 34.2696 36.5761 34.2696 36.0957C34.2696 35.6152 34.0717 35.1348 33.7326 34.7957C33.3935 34.4565 32.913 34.2587 32.4326 34.2587Z" fill="black"/>
</svg>
