<svg width="61" height="61" viewBox="0 0 61 61" fill="none" xmlns="http://www.w3.org/2000/svg">
<circle cx="30.5" cy="30.2607" r="30" fill="#FF6B6B"/>
<path d="M30.5 45.975C30.2098 45.975 29.9643 45.8746 29.7634 45.6737L19.317 35.5956C19.2054 35.5063 19.0519 35.3612 18.8566 35.1603C18.6613 34.9594 18.3516 34.5939 17.9275 34.0637C17.5033 33.5336 17.1239 32.9895 16.7891 32.4315C16.4542 31.8735 16.1557 31.1982 15.8934 30.4058C15.6311 29.6134 15.5 28.8433 15.5 28.0956C15.5 25.6402 16.2087 23.7206 17.6261 22.3366C19.0435 20.9527 21.0022 20.2607 23.5022 20.2607C24.1942 20.2607 24.9001 20.3807 25.62 20.6207C26.3398 20.8606 27.0095 21.1843 27.6289 21.5917C28.2483 21.999 28.7812 22.3813 29.2277 22.7384C29.6741 23.0956 30.0982 23.475 30.5 23.8768C30.9018 23.475 31.3259 23.0956 31.7723 22.7384C32.2188 22.3813 32.7517 21.999 33.3711 21.5917C33.9905 21.1843 34.6602 20.8606 35.38 20.6207C36.0999 20.3807 36.8058 20.2607 37.4978 20.2607C39.9978 20.2607 41.9565 20.9527 43.3739 22.3366C44.7913 23.7206 45.5 25.6402 45.5 28.0956C45.5 30.5621 44.2221 33.0732 41.6663 35.629L31.2366 45.6737C31.0357 45.8746 30.7902 45.975 30.5 45.975Z" fill="white"/>
</svg>
