<svg width="24" height="27" viewBox="0 0 24 27" fill="none" xmlns="http://www.w3.org/2000/svg">
<path d="M7.35669 15.3878C7.77777 15.6476 8.26741 15.7046 8.73541 15.5483C9.24553 15.378 9.71539 14.9633 10.0942 14.3492C10.4484 13.775 10.6041 13.2132 10.5444 12.7246C10.4853 12.2411 10.22 11.8411 9.7773 11.568C9.35384 11.3068 8.85662 11.2527 8.37718 11.4156C7.86763 11.5888 7.40592 11.9922 7.04166 12.5827C6.68351 13.1734 6.53576 13.7567 6.61439 14.2695C6.68647 14.7399 6.9501 15.137 7.35669 15.3878ZM7.84166 13.0369C8.33063 12.2442 8.92831 11.9058 9.36436 12.1748C9.60459 12.323 9.71296 12.5588 9.68644 12.8759C9.66221 13.1658 9.52466 13.5213 9.28869 13.9038C9.04496 14.299 8.40806 15.1749 7.76023 14.7753C7.60683 14.6807 7.5081 14.5394 7.46682 14.3554C7.38817 14.0045 7.52443 13.5246 7.84166 13.0369ZM12.1823 16.5124C11.7585 16.2509 11.261 16.1973 10.7814 16.3612C10.2711 16.5357 9.80771 16.9419 9.44094 17.5364C9.08529 18.1231 8.9393 18.7036 9.01872 19.2152C9.09165 19.6849 9.35552 20.0816 9.76174 20.3322C10.1788 20.5895 10.6656 20.6446 11.1325 20.4876C11.6421 20.3162 12.1115 19.9013 12.4899 19.2878C12.8446 18.7129 13.0019 18.1523 12.9448 17.6665C12.8881 17.1842 12.6245 16.7851 12.1823 16.5124ZM12.0915 17.8203C12.0673 18.1102 11.9298 18.4657 11.6938 18.8482C11.45 19.2434 10.8132 20.1193 10.1653 19.7196C10.0158 19.6274 9.91856 19.488 9.87642 19.3053C9.79473 18.9512 9.92616 18.4668 10.2374 17.9755C10.638 17.326 11.2672 16.8093 11.7694 17.1192C12.0097 17.2673 12.118 17.5032 12.0915 17.8203ZM13.7567 14.0227L13.2348 13.7008C13.2233 13.6937 13.2101 13.6898 13.1966 13.6894C13.1831 13.6891 13.1698 13.6923 13.1579 13.6988L5.73477 17.7655C5.72305 17.7719 5.71321 17.7813 5.70624 17.7927C5.69928 17.8041 5.69544 17.8172 5.69509 17.8306C5.69475 17.8439 5.69792 17.8572 5.70429 17.8689C5.71066 17.8807 5.72 17.8906 5.73139 17.8976L6.25326 18.2195C6.26476 18.2266 6.27793 18.2305 6.29143 18.2308C6.30493 18.2312 6.31828 18.228 6.33013 18.2215L13.7533 14.1548C13.7772 14.1417 13.7923 14.1169 13.793 14.0897C13.7937 14.0625 13.7799 14.037 13.7567 14.0227Z" fill="black"/>
<path d="M23.2304 10.0168L17.7949 4.30085L17.7599 4.33414C17.6852 4.21122 17.5899 4.10213 17.4781 4.0117C17.3059 3.87269 17.099 3.78252 16.8817 3.74923C16.9446 2.86124 16.897 2.04121 16.7441 1.4128C16.4929 0.380408 16.0266 0.083633 15.6796 0.0164597C15.4643 -0.025227 15.1235 -0.00791163 14.7231 0.311592C14.4543 0.526109 14.1908 0.848249 13.9401 1.26907C13.4455 2.09911 13.0397 3.24509 12.7976 4.49594C12.7873 4.54931 12.7774 4.60273 12.7677 4.65622L8.72924 5.64249C8.12567 5.78987 7.39275 6.31667 7.06069 6.84181L0.199266 17.6925C-0.180721 18.2934 -0.000977261 19.0914 0.599912 19.4714L10.5039 25.7342C10.7093 25.8641 10.9474 25.933 11.1904 25.9329C11.4041 25.9329 11.609 25.8815 11.7907 25.7869L22.5498 26.1311L22.5587 26.1312L22.5684 26.1313C23.3029 26.1313 23.903 25.5365 23.9082 24.8008L24 11.963C24.0045 11.3302 23.6665 10.4754 23.2304 10.0168ZM14.4626 1.5804C14.8515 0.92779 15.2737 0.557476 15.564 0.613619C15.8004 0.659361 16.0206 1.01187 16.1531 1.55658C16.297 2.1478 16.3368 2.93841 16.2679 3.8014L13.4174 4.49752C13.6484 3.35902 14.0179 2.32671 14.4626 1.5804ZM11.1905 25.3246C11.0625 25.3247 10.9372 25.2884 10.829 25.2201L0.925033 18.9572C0.607617 18.7565 0.512666 18.335 0.713396 18.0176L7.57484 7.16689C7.82038 6.77857 8.42727 6.34234 8.87358 6.23336L12.6665 5.30705C12.5546 6.17245 12.5391 6.99522 12.6233 7.69664C12.5526 7.77702 12.4884 7.86285 12.4312 7.95332C12.1436 8.40827 12.0502 8.94803 12.1685 9.47315C12.2868 9.99827 12.6025 10.4459 13.0574 10.7336C13.3804 10.9378 13.7523 11.0458 14.1328 11.0458C14.8288 11.0458 15.4661 10.695 15.8377 10.1074C16.4316 9.16822 16.1507 7.92101 15.2115 7.32715C14.8885 7.12292 14.5167 7.01497 14.1361 7.01497C13.7997 7.01497 13.4771 7.09714 13.1915 7.24818C13.1542 6.66033 13.1814 5.95293 13.3019 5.15188L16.5362 4.362C16.5878 4.34935 16.6406 4.34292 16.6937 4.34284C16.9711 4.34284 17.2087 4.51573 17.2985 4.77282L17.2806 4.78986L17.3145 4.82548C17.3174 4.83659 17.3201 4.8478 17.3224 4.85916L18.9168 12.5842C19.0097 13.0341 18.8757 13.7694 18.6302 14.1577L11.7687 25.0084C11.6435 25.2064 11.4274 25.3246 11.1905 25.3246ZM15.3236 9.78233C15.0641 10.1926 14.619 10.4375 14.1328 10.4375C13.8675 10.4375 13.6081 10.3622 13.3825 10.2195C13.0649 10.0187 12.8445 9.70616 12.7619 9.33953C12.7039 9.08193 12.7191 8.81938 12.8028 8.57577C12.8645 8.77287 12.9378 8.94691 13.0224 9.09653C13.2746 9.54233 13.5843 9.68562 13.7997 9.7273C13.8591 9.7388 13.9186 9.7445 13.9785 9.7445C14.4799 9.7445 14.9955 9.34348 15.4696 8.58872C15.5969 8.97475 15.5573 9.41271 15.3236 9.78233ZM13.9153 9.1301C13.6467 9.07812 13.3992 8.64539 13.2699 7.91957C13.5132 7.72964 13.8157 7.62326 14.1361 7.62326C14.4014 7.62326 14.6609 7.69864 14.8864 7.84128C14.9643 7.89056 15.0372 7.94737 15.104 8.01089C14.6901 8.75719 14.2333 9.19174 13.9153 9.1301ZM23.1986 24.7957C23.1961 25.1418 22.9138 25.4217 22.5683 25.4216H22.5676L12.4321 25.0974L18.6221 15.3085C18.7084 15.2354 18.7741 15.141 18.8125 15.0346L18.8357 14.9708L19.1443 14.4828C19.4764 13.9577 19.6381 13.0697 19.5125 12.4612L18.109 5.66104L22.7162 10.5059C23.0252 10.8309 23.2936 11.5094 23.2904 11.9579L23.1986 24.7957Z" fill="black"/>
</svg>
