<svg width="19" height="18" viewBox="0 0 19 18" fill="none" xmlns="http://www.w3.org/2000/svg">
<path d="M18.2043 16.2848L14.8054 12.8958C15.902 11.4988 16.4971 9.77351 16.4948 7.99743C16.4948 6.41569 16.0258 4.86947 15.147 3.5543C14.2683 2.23913 13.0192 1.21408 11.5579 0.608771C10.0966 0.00346513 8.48855 -0.15491 6.93721 0.153672C5.38586 0.462254 3.96085 1.22393 2.84239 2.34239C1.72393 3.46085 0.962254 4.88586 0.653672 6.43721C0.34509 7.98855 0.503465 9.59657 1.10877 11.0579C1.71408 12.5192 2.73913 13.7683 4.0543 14.647C5.36947 15.5258 6.91569 15.9948 8.49743 15.9948C10.2735 15.9971 11.9988 15.402 13.3958 14.3054L16.7848 17.7043C16.8777 17.798 16.9883 17.8724 17.1101 17.9231C17.2319 17.9739 17.3626 18 17.4945 18C17.6265 18 17.7572 17.9739 17.879 17.9231C18.0008 17.8724 18.1114 17.798 18.2043 17.7043C18.298 17.6114 18.3724 17.5008 18.4231 17.379C18.4739 17.2572 18.5 17.1265 18.5 16.9945C18.5 16.8626 18.4739 16.7319 18.4231 16.6101C18.3724 16.4883 18.298 16.3777 18.2043 16.2848ZM2.49936 7.99743C2.49936 6.81112 2.85114 5.65146 3.51022 4.66508C4.16929 3.6787 5.10606 2.90991 6.20207 2.45593C7.29807 2.00196 8.50408 1.88317 9.66759 2.11461C10.8311 2.34605 11.8999 2.91731 12.7387 3.75615C13.5775 4.595 14.1488 5.66375 14.3802 6.82726C14.6117 7.99077 14.4929 9.19678 14.0389 10.2928C13.5849 11.3888 12.8162 12.3256 11.8298 12.9846C10.8434 13.6437 9.68373 13.9955 8.49743 13.9955C6.90664 13.9955 5.38101 13.3636 4.25615 12.2387C3.1313 11.1138 2.49936 9.58821 2.49936 7.99743Z" fill="white"/>
</svg>
