<svg width="10" height="10" viewBox="0 0 10 10" fill="none" xmlns="http://www.w3.org/2000/svg">
<path d="M9.99459 4.005C10.035 3.71781 9.84455 3.45085 9.56923 3.40869L6.72352 2.97478L5.45188 0.271799C5.40608 0.18935 5.34037 0.120878 5.26126 0.0732103C5.01149 -0.0773578 4.69195 0.0117584 4.54756 0.272312L3.27641 2.97478L0.430696 3.40873C0.321898 3.42536 0.221337 3.4787 0.144287 3.56054C-0.0506583 3.76766 -0.0476771 4.1004 0.150895 4.30374L2.21179 6.41124L1.72545 9.38606C1.72084 9.41453 1.71848 9.44334 1.71842 9.47226C1.71765 9.76291 1.94293 9.9992 2.22162 10C2.30377 9.99987 2.38466 9.97875 2.45717 9.93845L4.99997 8.53618L7.54227 9.93794C7.64053 9.99234 7.75326 10.0113 7.86292 9.99179C8.13694 9.94304 8.32119 9.67187 8.27448 9.38606L7.78814 6.41124L9.84953 4.30319C9.92771 4.22292 9.97864 4.11823 9.99459 4.005ZM7.34164 6.13219C7.28269 6.19252 7.25571 6.27907 7.26936 6.36402L7.77782 9.47373L5.11749 8.00681C5.04382 7.9668 4.95611 7.9668 4.88244 8.00681L2.22211 9.47425L2.73054 6.36405C2.74422 6.2791 2.71724 6.19255 2.65826 6.13222L0.503443 3.92881L3.48045 3.47489C3.56266 3.46207 3.6336 3.40802 3.67029 3.33025L4.99997 0.503693L6.32961 3.33022C6.3663 3.40799 6.43727 3.46203 6.51945 3.47486L9.49695 3.92826L7.34164 6.13219Z" fill="#D9A900"/>
</svg>
