<svg width="21" height="20" viewBox="0 0 21 20" fill="none" xmlns="http://www.w3.org/2000/svg">
<path d="M20.5 8.3608C20.6 7.8608 20.2 7.2608 19.7 7.2608L14 6.4608L11.4 1.2608C11.3 1.0608 11.2 0.960803 11 0.860803C10.5 0.560803 9.9 0.760803 9.6 1.2608L7.1 6.4608L1.4 7.2608C1.1 7.2608 0.9 7.3608 0.8 7.5608C0.4 7.9608 0.4 8.5608 0.8 8.9608L4.9 12.9608L3.9 18.6608C3.9 18.8608 3.9 19.0608 4 19.2608C4.3 19.7608 4.9 19.9608 5.4 19.6608L10.5 16.9608L15.6 19.6608C15.7 19.7608 15.9 19.7608 16.1 19.7608C16.2 19.7608 16.2 19.7608 16.3 19.7608C16.8 19.6608 17.2 19.1608 17.1 18.5608L16.1 12.8608L20.2 8.8608C20.4 8.7608 20.5 8.5608 20.5 8.3608Z" fill="#D9A900"/>
</svg>
