<svg width="21" height="20" viewBox="0 0 21 20" fill="none" xmlns="http://www.w3.org/2000/svg">
<path d="M20.5463 8.3608C20.6463 7.8608 20.2463 7.2608 19.7463 7.2608L14.0463 6.4608L11.4463 1.2608C11.3463 1.0608 11.2463 0.960803 11.0463 0.860803C10.5463 0.560803 9.94627 0.760803 9.64627 1.2608L7.14627 6.4608L1.44626 7.2608C1.14626 7.2608 0.946265 7.3608 0.846265 7.5608C0.446265 7.9608 0.446265 8.5608 0.846265 8.9608L4.94626 12.9608L3.94626 18.6608C3.94626 18.8608 3.94626 19.0608 4.04626 19.2608C4.34626 19.7608 4.94626 19.9608 5.44626 19.6608L10.5463 16.9608L15.6463 19.6608C15.7463 19.7608 15.9463 19.7608 16.1463 19.7608C16.2463 19.7608 16.2463 19.7608 16.3463 19.7608C16.8463 19.6608 17.2463 19.1608 17.1463 18.5608L16.1463 12.8608L20.2463 8.8608C20.4463 8.7608 20.5463 8.5608 20.5463 8.3608Z" fill="#D9A900"/>
</svg>
