<svg width="27" height="21" viewBox="0 0 27 21" fill="none" xmlns="http://www.w3.org/2000/svg">
<path d="M26.4435 4.86726L23.4196 14.3912C23.1935 15.0694 22.6 15.5216 21.8935 15.5216H10.2217C9.54348 15.5216 8.89348 15.0977 8.66739 14.476L4.20217 2.52161H1.63043C1.0087 2.52161 0.5 2.01292 0.5 1.39118C0.5 0.769438 1.0087 0.260742 1.63043 0.260742H4.99348C5.47391 0.260742 5.89783 0.571612 6.06739 1.02379L10.6739 13.2607H21.413L23.8152 5.63031H10.5043C9.88261 5.63031 9.37391 5.12161 9.37391 4.49987C9.37391 3.87813 9.88261 3.36944 10.5043 3.36944H25.3696C25.737 3.36944 26.0761 3.56726 26.2739 3.84987C26.5 4.13248 26.5565 4.52813 26.4435 4.86726ZM10.787 17.0194C10.3065 17.0194 9.82609 17.2173 9.48696 17.5564C9.14783 17.8955 8.95 18.376 8.95 18.8564C8.95 19.3368 9.14783 19.8173 9.48696 20.1564C9.82609 20.4955 10.3065 20.6934 10.787 20.6934C11.2674 20.6934 11.7478 20.4955 12.087 20.1564C12.4261 19.8173 12.6239 19.3368 12.6239 18.8564C12.6239 18.376 12.4261 17.8955 12.087 17.5564C11.7478 17.2173 11.2674 17.0194 10.787 17.0194ZM20.9326 17.0194C20.4522 17.0194 19.9717 17.2173 19.6326 17.5564C19.2935 17.8955 19.0957 18.376 19.0957 18.8564C19.0957 19.3368 19.2935 19.8173 19.6326 20.1564C19.9717 20.4955 20.4522 20.6934 20.9326 20.6934C21.413 20.6934 21.8935 20.4955 22.2326 20.1564C22.5717 19.8173 22.7696 19.3368 22.7696 18.8564C22.7696 18.376 22.5717 17.8955 22.2326 17.5564C21.8935 17.2173 21.413 17.0194 20.9326 17.0194Z" fill="black"/>
</svg>
