<svg width="23" height="28" viewBox="0 0 23 28" fill="none" xmlns="http://www.w3.org/2000/svg">
<path d="M11.5 0.499908C8.58262 0.499908 5.78473 1.65883 3.72183 3.72173C1.65893 5.78464 0.5 8.58253 0.5 11.4999C0.5 18.9249 10.1938 27.3124 10.6063 27.6699C10.8553 27.8829 11.1723 28 11.5 28C11.8277 28 12.1447 27.8829 12.3937 27.6699C12.875 27.3124 22.5 18.9249 22.5 11.4999C22.5 8.58253 21.3411 5.78464 19.2782 3.72173C17.2153 1.65883 14.4174 0.499908 11.5 0.499908ZM11.5 24.7687C8.57125 22.0187 3.25 16.0924 3.25 11.4999C3.25 9.31187 4.11919 7.21345 5.66637 5.66628C7.21354 4.1191 9.31196 3.24991 11.5 3.24991C13.688 3.24991 15.7865 4.1191 17.3336 5.66628C18.8808 7.21345 19.75 9.31187 19.75 11.4999C19.75 16.0924 14.4288 22.0324 11.5 24.7687ZM11.5 5.99991C10.4122 5.99991 9.34883 6.32248 8.44436 6.92683C7.53989 7.53117 6.83494 8.39016 6.41866 9.39515C6.00238 10.4001 5.89346 11.506 6.10568 12.5729C6.3179 13.6398 6.84172 14.6198 7.61091 15.389C8.3801 16.1582 9.36011 16.682 10.427 16.8942C11.4939 17.1064 12.5998 16.9975 13.6048 16.5812C14.6098 16.165 15.4687 15.46 16.0731 14.5555C16.6774 13.6511 17 12.5877 17 11.4999C17 10.0412 16.4205 8.64227 15.3891 7.61082C14.3576 6.57937 12.9587 5.99991 11.5 5.99991ZM11.5 14.2499C10.9561 14.2499 10.4244 14.0886 9.97218 13.7865C9.51995 13.4843 9.16747 13.0548 8.95933 12.5523C8.75119 12.0498 8.69673 11.4969 8.80284 10.9634C8.90895 10.43 9.17086 9.93996 9.55546 9.55537C9.94005 9.17077 10.4301 8.90886 10.9635 8.80275C11.4969 8.69664 12.0499 8.7511 12.5524 8.95924C13.0549 9.16738 13.4844 9.51986 13.7865 9.97209C14.0887 10.4243 14.25 10.956 14.25 11.4999C14.25 12.2293 13.9603 12.9287 13.4445 13.4445C12.9288 13.9602 12.2293 14.2499 11.5 14.2499Z" fill="#5FB0E7"/>
</svg>
