<svg width="14" height="14" viewBox="0 0 14 14" fill="none" xmlns="http://www.w3.org/2000/svg">
<path d="M13.9402 0.387223C14.0527 0.65861 14.0064 0.890281 13.8012 1.08224L8.90633 5.97713V13.3443C8.90633 13.6223 8.77725 13.8176 8.5191 13.9301C8.43305 13.9632 8.35032 13.9797 8.27088 13.9797C8.09217 13.9797 7.94323 13.9168 7.82409 13.7911L5.28232 11.2493C5.15656 11.1236 5.09367 10.9746 5.09367 10.8025V5.97713L0.198783 1.08224C-0.00641233 0.890281 -0.0527467 0.65861 0.0597796 0.387223C0.172306 0.129074 0.367572 0 0.645578 0H13.3544C13.6324 0 13.8277 0.129074 13.9402 0.387223Z" fill="white"/>
</svg>
