<svg width="21" height="21" viewBox="0 0 21 21" fill="none" xmlns="http://www.w3.org/2000/svg">
<path d="M17.832 0.917969H5.10201C4.4002 0.918203 3.72068 1.16448 3.18169 1.61395C2.64269 2.06341 2.27833 2.68762 2.15201 3.37797L0.882008 10.378C0.802876 10.8104 0.819753 11.255 0.931443 11.6801C1.04313 12.1053 1.24691 12.5008 1.52834 12.8385C1.80978 13.1762 2.16201 13.448 2.56009 13.6345C2.95817 13.8211 3.39239 13.9178 3.83201 13.918H8.39201L7.83201 15.348C7.59908 15.9741 7.5215 16.6474 7.60594 17.31C7.69039 17.9727 7.93432 18.605 8.31682 19.1527C8.69932 19.7004 9.20898 20.1472 9.80207 20.4546C10.3952 20.7621 11.054 20.9211 11.722 20.918C11.9144 20.9176 12.1025 20.8617 12.2639 20.757C12.4253 20.6524 12.5531 20.5034 12.632 20.328L15.482 13.918H17.832C18.6277 13.918 19.3907 13.6019 19.9533 13.0393C20.5159 12.4767 20.832 11.7136 20.832 10.918V3.91797C20.832 3.12232 20.5159 2.35926 19.9533 1.79665C19.3907 1.23404 18.6277 0.917969 17.832 0.917969ZM13.832 12.708L11.112 18.828C10.8337 18.7438 10.5756 18.6035 10.3535 18.4157C10.1315 18.228 9.95028 17.9968 9.82099 17.7363C9.69171 17.4759 9.61711 17.1917 9.60181 16.9013C9.58651 16.611 9.63082 16.3206 9.73201 16.048L10.262 14.618C10.3749 14.3157 10.4131 13.9906 10.3731 13.6704C10.3332 13.3503 10.2164 13.0445 10.0327 12.7792C9.84896 12.514 9.6038 12.2971 9.3181 12.1471C9.03241 11.9972 8.71467 11.9185 8.39201 11.918H3.83201C3.6851 11.9182 3.53994 11.8861 3.40685 11.8239C3.27377 11.7616 3.15603 11.6709 3.06201 11.558C2.96568 11.4466 2.89511 11.3154 2.85535 11.1737C2.81559 11.0319 2.80762 10.8832 2.83201 10.738L4.10201 3.73797C4.1446 3.50501 4.26849 3.29473 4.45162 3.14457C4.63474 2.99441 4.86522 2.91411 5.10201 2.91797H13.832V12.708ZM18.832 10.918C18.832 11.1832 18.7267 11.4375 18.5391 11.6251C18.3516 11.8126 18.0972 11.918 17.832 11.918H15.832V2.91797H17.832C18.0972 2.91797 18.3516 3.02333 18.5391 3.21086C18.7267 3.3984 18.832 3.65275 18.832 3.91797V10.918Z" fill="#919191"/>
</svg>
