<svg width="21" height="20" viewBox="0 0 21 20" fill="none" xmlns="http://www.w3.org/2000/svg">
<path d="M20.5154 8.3608C20.6154 7.8608 20.2154 7.2608 19.7154 7.2608L14.0154 6.4608L11.4154 1.2608C11.3154 1.0608 11.2154 0.960803 11.0154 0.860803C10.5154 0.560803 9.91544 0.760803 9.61544 1.2608L7.11544 6.4608L1.41544 7.2608C1.11544 7.2608 0.915442 7.3608 0.815442 7.5608C0.415442 7.9608 0.415442 8.5608 0.815442 8.9608L4.91544 12.9608L3.91544 18.6608C3.91544 18.8608 3.91544 19.0608 4.01544 19.2608C4.31544 19.7608 4.91544 19.9608 5.41544 19.6608L10.5154 16.9608L15.6154 19.6608C15.7154 19.7608 15.9154 19.7608 16.1154 19.7608C16.2154 19.7608 16.2154 19.7608 16.3154 19.7608C16.8154 19.6608 17.2154 19.1608 17.1154 18.5608L16.1154 12.8608L20.2154 8.8608C20.4154 8.7608 20.5154 8.5608 20.5154 8.3608Z" fill="#D9A900"/>
</svg>
