<svg width="8" height="8" viewBox="0 0 8 8" fill="none" xmlns="http://www.w3.org/2000/svg">
<path d="M3.96815 0.210815C1.77773 0.210815 0 1.94408 0 4.0797C0 6.21533 1.77773 7.94859 3.96815 7.94859C6.15857 7.94859 7.93631 6.21533 7.93631 4.0797C7.93631 1.94408 6.15857 0.210815 3.96815 0.210815ZM3.96815 6.01415C3.7499 6.01415 3.57134 5.84005 3.57134 5.62726V4.0797C3.57134 3.86692 3.7499 3.69282 3.96815 3.69282C4.1864 3.69282 4.36497 3.86692 4.36497 4.0797V5.62726C4.36497 5.84005 4.1864 6.01415 3.96815 6.01415ZM4.36497 2.91904H3.57134V2.14526H4.36497V2.91904Z" fill="#ABABAB"/>
</svg>
