<svg width="21" height="21" viewBox="0 0 21 21" fill="none" xmlns="http://www.w3.org/2000/svg">
<path d="M20.1347 8.99801C19.8537 8.66066 19.5021 8.3891 19.1047 8.20248C18.7073 8.01587 18.2738 7.91876 17.8347 7.91801H13.2747L13.8347 6.48801C14.0676 5.8619 14.1452 5.18862 14.0608 4.52593C13.9763 3.86325 13.7324 3.23094 13.3499 2.68324C12.9674 2.13555 12.4577 1.68881 11.8647 1.38136C11.2716 1.0739 10.6128 0.914909 9.94472 0.918013C9.75236 0.918415 9.56419 0.974289 9.40279 1.07894C9.24138 1.18358 9.11358 1.33256 9.03472 1.50801L6.18472 7.91801H3.83472C3.03907 7.91801 2.27601 8.23408 1.7134 8.79669C1.15079 9.3593 0.834717 10.1224 0.834717 10.918V17.918C0.834717 18.7137 1.15079 19.4767 1.7134 20.0393C2.27601 20.6019 3.03907 20.918 3.83472 20.918H16.5647C17.2665 20.9178 17.946 20.6715 18.485 20.222C19.024 19.7726 19.3884 19.1484 19.5147 18.458L20.7847 11.458C20.8633 11.0254 20.8458 10.5808 20.7334 10.1557C20.6211 9.73058 20.4167 9.33537 20.1347 8.99801ZM5.83472 18.918H3.83472C3.5695 18.918 3.31515 18.8127 3.12761 18.6251C2.94007 18.4376 2.83472 18.1832 2.83472 17.918V10.918C2.83472 10.6528 2.94007 10.3984 3.12761 10.2109C3.31515 10.0234 3.5695 9.91801 3.83472 9.91801H5.83472V18.918ZM18.8347 11.098L17.5647 18.098C17.5221 18.331 17.3982 18.5413 17.2151 18.6914C17.032 18.8416 16.8015 18.9219 16.5647 18.918H7.83472V9.12801L10.5547 3.00801C10.8347 3.08964 11.0947 3.22842 11.3184 3.4156C11.542 3.60277 11.7244 3.83428 11.8541 4.09551C11.9838 4.35673 12.0579 4.642 12.0718 4.93331C12.0856 5.22462 12.039 5.51565 11.9347 5.78801L11.4047 7.21801C11.2918 7.52027 11.2537 7.84536 11.2936 8.16554C11.3335 8.48573 11.4503 8.7915 11.6341 9.05675C11.8178 9.32201 12.0629 9.53888 12.3486 9.68885C12.6343 9.83883 12.9521 9.91745 13.2747 9.91801H17.8347C17.9816 9.91778 18.1268 9.94991 18.2599 10.0121C18.393 10.0744 18.5107 10.1651 18.6047 10.278C18.701 10.3893 18.7716 10.5206 18.8114 10.6623C18.8511 10.8041 18.8591 10.9528 18.8347 11.098Z" fill="#919191"/>
</svg>
