<svg width="21" height="20" viewBox="0 0 21 20" fill="none" xmlns="http://www.w3.org/2000/svg">
<path d="M20.8193 8.01791C20.9193 7.51791 20.5193 6.91791 20.0193 6.91791L14.3193 6.11791L11.7193 0.917907C11.6193 0.717907 11.5193 0.617907 11.3193 0.517907C10.8193 0.217907 10.2193 0.417907 9.91934 0.917907L7.41934 6.11791L1.71934 6.91791C1.41934 6.91791 1.21934 7.01791 1.11934 7.21791C0.719336 7.61791 0.719336 8.21791 1.11934 8.61791L5.21934 12.6179L4.21934 18.3179C4.21934 18.5179 4.21934 18.7179 4.31934 18.9179C4.61934 19.4179 5.21934 19.6179 5.71934 19.3179L10.8193 16.6179L15.9193 19.3179C16.0193 19.4179 16.2193 19.4179 16.4193 19.4179C16.5193 19.4179 16.5193 19.4179 16.6193 19.4179C17.1193 19.3179 17.5193 18.8179 17.4193 18.2179L16.4193 12.5179L20.5193 8.51791C20.7193 8.41791 20.8193 8.21791 20.8193 8.01791Z" fill="#D9A900"/>
</svg>
