<svg width="23" height="28" viewBox="0 0 23 28" fill="none" xmlns="http://www.w3.org/2000/svg">
<path d="M11.5 0.249954C8.58262 0.249954 5.78473 1.40888 3.72183 3.47178C1.65893 5.53468 0.5 8.33257 0.5 11.25C0.5 18.675 10.1938 27.0625 10.6063 27.42C10.8553 27.633 11.1723 27.75 11.5 27.75C11.8277 27.75 12.1447 27.633 12.3937 27.42C12.875 27.0625 22.5 18.675 22.5 11.25C22.5 8.33257 21.3411 5.53468 19.2782 3.47178C17.2153 1.40888 14.4174 0.249954 11.5 0.249954ZM11.5 24.5187C8.57125 21.7687 3.25 15.8425 3.25 11.25C3.25 9.06192 4.11919 6.9635 5.66637 5.41632C7.21354 3.86915 9.31196 2.99995 11.5 2.99995C13.688 2.99995 15.7865 3.86915 17.3336 5.41632C18.8808 6.9635 19.75 9.06192 19.75 11.25C19.75 15.8425 14.4288 21.7825 11.5 24.5187ZM11.5 5.74996C10.4122 5.74996 9.34883 6.07252 8.44436 6.67687C7.53989 7.28122 6.83494 8.1402 6.41866 9.1452C6.00238 10.1502 5.89346 11.2561 6.10568 12.323C6.3179 13.3898 6.84172 14.3699 7.61091 15.139C8.3801 15.9082 9.36011 16.4321 10.427 16.6443C11.4939 16.8565 12.5998 16.7476 13.6048 16.3313C14.6098 15.915 15.4687 15.2101 16.0731 14.3056C16.6774 13.4011 17 12.3378 17 11.25C17 9.79127 16.4205 8.39232 15.3891 7.36087C14.3576 6.32942 12.9587 5.74996 11.5 5.74996ZM11.5 14C10.9561 14 10.4244 13.8387 9.97218 13.5365C9.51995 13.2343 9.16747 12.8048 8.95933 12.3023C8.75119 11.7998 8.69673 11.2469 8.80284 10.7135C8.90895 10.18 9.17086 9.69001 9.55546 9.30541C9.94005 8.92082 10.4301 8.65891 10.9635 8.5528C11.4969 8.44669 12.0499 8.50115 12.5524 8.70929C13.0549 8.91743 13.4844 9.2699 13.7865 9.72214C14.0887 10.1744 14.25 10.7061 14.25 11.25C14.25 11.9793 13.9603 12.6788 13.4445 13.1945C12.9288 13.7102 12.2293 14 11.5 14Z" fill="#5FB0E7"/>
</svg>
