<svg width="7" height="8" viewBox="0 0 7 8" fill="none" xmlns="http://www.w3.org/2000/svg">
<path d="M3.5 0.721191C1.568 0.721191 0 2.28919 0 4.22119C0 6.15319 1.568 7.72119 3.5 7.72119C5.432 7.72119 7 6.15319 7 4.22119C7 2.28919 5.432 0.721191 3.5 0.721191ZM3.5 5.97119C3.3075 5.97119 3.15 5.81369 3.15 5.62119V4.22119C3.15 4.02869 3.3075 3.87119 3.5 3.87119C3.6925 3.87119 3.85 4.02869 3.85 4.22119V5.62119C3.85 5.81369 3.6925 5.97119 3.5 5.97119ZM3.85 3.17119H3.15V2.47119H3.85V3.17119Z" fill="#ABABAB"/>
</svg>
