<svg width="14" height="13" viewBox="0 0 14 13" fill="none" xmlns="http://www.w3.org/2000/svg">
<path d="M7 12.8579C6.86458 12.8579 6.75 12.811 6.65625 12.7173L1.78125 8.01416C1.72917 7.97249 1.65755 7.90478 1.56641 7.81103C1.47526 7.71728 1.33073 7.54671 1.13281 7.29931C0.934896 7.05192 0.757812 6.79801 0.601562 6.53759C0.445312 6.27718 0.30599 5.96207 0.183594 5.59228C0.0611979 5.22249 0 4.86312 0 4.51416C0 3.36833 0.330729 2.47249 0.992188 1.82666C1.65365 1.18083 2.56771 0.85791 3.73438 0.85791C4.05729 0.85791 4.38672 0.9139 4.72266 1.02588C5.05859 1.13786 5.37109 1.2889 5.66016 1.479C5.94922 1.66911 6.19792 1.84749 6.40625 2.01416C6.61458 2.18083 6.8125 2.35791 7 2.54541C7.1875 2.35791 7.38542 2.18083 7.59375 2.01416C7.80208 1.84749 8.05078 1.66911 8.33984 1.479C8.62891 1.2889 8.94141 1.13786 9.27734 1.02588C9.61328 0.9139 9.94271 0.85791 10.2656 0.85791C11.4323 0.85791 12.3464 1.18083 13.0078 1.82666C13.6693 2.47249 14 3.36833 14 4.51416C14 5.6652 13.4036 6.83707 12.2109 8.02978L7.34375 12.7173C7.25 12.811 7.13542 12.8579 7 12.8579Z" fill="white"/>
</svg>
