<svg width="21" height="20" viewBox="0 0 21 20" fill="none" xmlns="http://www.w3.org/2000/svg">
<path d="M20.5309 8.3608C20.6309 7.8608 20.2309 7.2608 19.7309 7.2608L14.0309 6.4608L11.4309 1.2608C11.3309 1.0608 11.2309 0.960803 11.0309 0.860803C10.5309 0.560803 9.93088 0.760803 9.63088 1.2608L7.13088 6.4608L1.43088 7.2608C1.13088 7.2608 0.930884 7.3608 0.830884 7.5608C0.430884 7.9608 0.430884 8.5608 0.830884 8.9608L4.93088 12.9608L3.93088 18.6608C3.93088 18.8608 3.93088 19.0608 4.03088 19.2608C4.33088 19.7608 4.93088 19.9608 5.43088 19.6608L10.5309 16.9608L15.6309 19.6608C15.7309 19.7608 15.9309 19.7608 16.1309 19.7608C16.2309 19.7608 16.2309 19.7608 16.3309 19.7608C16.8309 19.6608 17.2309 19.1608 17.1309 18.5608L16.1309 12.8608L20.2309 8.8608C20.4309 8.7608 20.5309 8.5608 20.5309 8.3608Z" fill="#D9A900"/>
</svg>
