<svg width="35" height="27" viewBox="0 0 35 27" fill="none" xmlns="http://www.w3.org/2000/svg">
<path d="M34.1761 6.16414L30.2217 18.6185C29.9261 19.5054 29.15 20.0967 28.2261 20.0967H12.963C12.0761 20.0967 11.2261 19.5424 10.9304 18.7294L5.0913 3.09675H1.72826C0.915217 3.09675 0.25 2.43153 0.25 1.61849C0.25 0.805445 0.915217 0.140228 1.72826 0.140228H6.12609C6.75435 0.140228 7.3087 0.54675 7.53044 1.13805L13.5543 17.1402H27.5978L30.7391 7.16197H13.3326C12.5196 7.16197 11.8543 6.49675 11.8543 5.68371C11.8543 4.87066 12.5196 4.20544 13.3326 4.20544H32.7717C33.2522 4.20544 33.6957 4.46414 33.9543 4.83371C34.25 5.20327 34.3239 5.72066 34.1761 6.16414ZM13.7022 22.0554C13.0739 22.0554 12.4457 22.3141 12.0022 22.7576C11.5587 23.2011 11.3 23.8294 11.3 24.4576C11.3 25.0859 11.5587 25.7141 12.0022 26.1576C12.4457 26.6011 13.0739 26.8598 13.7022 26.8598C14.3304 26.8598 14.9587 26.6011 15.4022 26.1576C15.8457 25.7141 16.1043 25.0859 16.1043 24.4576C16.1043 23.8294 15.8457 23.2011 15.4022 22.7576C14.9587 22.3141 14.3304 22.0554 13.7022 22.0554ZM26.9696 22.0554C26.3413 22.0554 25.713 22.3141 25.2696 22.7576C24.8261 23.2011 24.5674 23.8294 24.5674 24.4576C24.5674 25.0859 24.8261 25.7141 25.2696 26.1576C25.713 26.6011 26.3413 26.8598 26.9696 26.8598C27.5978 26.8598 28.2261 26.6011 28.6696 26.1576C29.113 25.7141 29.3717 25.0859 29.3717 24.4576C29.3717 23.8294 29.113 23.2011 28.6696 22.7576C28.2261 22.3141 27.5978 22.0554 26.9696 22.0554Z" fill="#08090A"/>
</svg>
