<svg width="20" height="20" viewBox="0 0 20 20" fill="none" xmlns="http://www.w3.org/2000/svg">
<path d="M9.98093 13.3852L6.10093 17.2652C5.63117 17.7186 5.00379 17.972 4.35093 17.972C3.69807 17.972 3.07069 17.7186 2.60093 17.2652C2.37054 17.0357 2.18772 16.763 2.06298 16.4627C1.93824 16.1624 1.87403 15.8404 1.87403 15.5152C1.87403 15.19 1.93824 14.868 2.06298 14.5677C2.18772 14.2674 2.37054 13.9947 2.60093 13.7652L6.48093 9.88521C6.66923 9.69691 6.77502 9.44151 6.77502 9.17521C6.77502 8.90891 6.66923 8.65352 6.48093 8.46521C6.29263 8.27691 6.03723 8.17112 5.77093 8.17112C5.50463 8.17112 5.24923 8.27691 5.06093 8.46521L1.18093 12.3552C0.399287 13.206 -0.0234493 14.3259 0.00100474 15.481C0.0254587 16.636 0.495212 17.737 1.31216 18.554C2.12911 19.3709 3.23009 19.8407 4.38518 19.8651C5.54026 19.8896 6.66014 19.4669 7.51093 18.6852L11.4009 14.8052C11.5892 14.6169 11.695 14.3615 11.695 14.0952C11.695 13.8289 11.5892 13.5735 11.4009 13.3852C11.2126 13.1969 10.9572 13.0911 10.6909 13.0911C10.4246 13.0911 10.1692 13.1969 9.98093 13.3852ZM18.5609 1.30521C17.7197 0.469219 16.5819 0 15.3959 0C14.21 0 13.0722 0.469219 12.2309 1.30521L8.34093 5.18521C8.24769 5.27845 8.17373 5.38914 8.12327 5.51096C8.07281 5.63278 8.04684 5.76335 8.04684 5.89521C8.04684 6.02707 8.07281 6.15764 8.12327 6.27946C8.17373 6.40128 8.24769 6.51197 8.34093 6.60521C8.43417 6.69845 8.54486 6.77241 8.66668 6.82287C8.7885 6.87333 8.91907 6.8993 9.05093 6.8993C9.18279 6.8993 9.31336 6.87333 9.43518 6.82287C9.557 6.77241 9.66769 6.69845 9.76093 6.60521L13.6409 2.72521C14.1107 2.27184 14.7381 2.01847 15.3909 2.01847C16.0438 2.01847 16.6712 2.27184 17.1409 2.72521C17.3713 2.9547 17.5541 3.22742 17.6789 3.52773C17.8036 3.82804 17.8678 4.15003 17.8678 4.47521C17.8678 4.8004 17.8036 5.12238 17.6789 5.42269C17.5541 5.723 17.3713 5.99572 17.1409 6.22521L13.2609 10.1052C13.1672 10.1982 13.0928 10.3088 13.042 10.4306C12.9913 10.5525 12.9651 10.6832 12.9651 10.8152C12.9651 10.9472 12.9913 11.0779 13.042 11.1998C13.0928 11.3216 13.1672 11.4322 13.2609 11.5252C13.3539 11.6189 13.4645 11.6933 13.5864 11.7441C13.7082 11.7949 13.8389 11.821 13.9709 11.821C14.1029 11.821 14.2336 11.7949 14.3555 11.7441C14.4774 11.6933 14.588 11.6189 14.6809 11.5252L18.5609 7.63521C19.3969 6.79399 19.8661 5.65619 19.8661 4.47021C19.8661 3.28424 19.3969 2.14643 18.5609 1.30521ZM6.70093 13.1652C6.79437 13.2579 6.90519 13.3312 7.02702 13.381C7.14886 13.4307 7.27932 13.456 7.41093 13.4552C7.54254 13.456 7.673 13.4307 7.79484 13.381C7.91667 13.3312 8.02749 13.2579 8.12093 13.1652L13.0409 8.24521C13.2292 8.05691 13.335 7.80151 13.335 7.53521C13.335 7.26891 13.2292 7.01352 13.0409 6.82521C12.8526 6.63691 12.5972 6.53112 12.3309 6.53112C12.0646 6.53112 11.8092 6.63691 11.6209 6.82521L6.70093 11.7452C6.6072 11.8382 6.53281 11.9488 6.48204 12.0706C6.43127 12.1925 6.40513 12.3232 6.40513 12.4552C6.40513 12.5872 6.43127 12.7179 6.48204 12.8398C6.53281 12.9616 6.6072 13.0722 6.70093 13.1652Z" fill="white"/>
</svg>
