<svg width="21" height="20" viewBox="0 0 21 20" fill="none" xmlns="http://www.w3.org/2000/svg">
<path d="M20.4102 8.34539C20.4905 7.79857 20.1122 7.29027 19.5655 7.21001L13.9141 6.38384L11.3887 1.23735C11.2978 1.08037 11.1673 0.95 11.0102 0.859241C10.5141 0.572559 9.87956 0.742237 9.59282 1.23833L7.0684 6.38384L1.41704 7.21007C1.20097 7.24175 1.00126 7.34331 0.848249 7.49913C0.461103 7.89348 0.467023 8.52703 0.861372 8.91417L4.95414 12.9269L3.98832 18.5909C3.97917 18.6451 3.97447 18.7 3.97435 18.7551C3.97282 19.3085 4.42021 19.7584 4.97368 19.7599C5.13682 19.7596 5.29747 19.7194 5.44145 19.6427L10.4913 16.9728L15.5401 19.6417C15.7352 19.7453 15.9591 19.7814 16.1769 19.7443C16.7211 19.6514 17.087 19.1351 16.9942 18.5909L16.0284 12.9269L20.1221 8.91314C20.2774 8.7603 20.3785 8.56096 20.4102 8.34539ZM15.1416 12.3956C15.0246 12.5104 14.971 12.6752 14.9981 12.837L16.0079 18.7579L10.7247 15.9648C10.5784 15.8887 10.4042 15.8887 10.2579 15.9648L4.97465 18.7588L5.98436 12.837C6.01152 12.6753 5.95793 12.5105 5.8408 12.3956L1.56151 8.20031L7.47362 7.33605C7.63688 7.31163 7.77775 7.20873 7.85063 7.06066L10.4913 1.67888L13.1318 7.0606C13.2047 7.20867 13.3456 7.31157 13.5088 7.33599L19.4219 8.19927L15.1416 12.3956Z" fill="#D9A900"/>
</svg>
